<svg width="642" height="511" viewBox="0 0 642 511" fill="none" xmlns="http://www.w3.org/2000/svg">
<path d="M500 217.714C475 227.214 417.5 263.714 392 379.714C406.5 401.714 441.825 446.464 463 437.714C509.5 418.5 538.5 383 536 381.5C535 379 520.6 379.714 499 379.714C472 379.714 444.5 398.714 463 384.714C481.5 370.714 487.5 367.214 539 358.214C599.5 347.641 623.5 272.456 606.5 281.214C593.3 288.014 535 296.714 507.5 300.214C513.333 296.381 532.7 285.514 563.5 272.714C602 256.714 628.122 229.214 639 188.214C645.5 163.714 640 139.214 636 146.214C632.8 151.814 544 196.214 500 217.714Z" fill="#1AC897"/>
<path d="M395 58C429.794 58 458 86.2061 458 121V242.979L457.952 241.841L457.146 242.646C445.398 254.395 436.985 262.931 429.076 275.547C421.418 287.763 414.244 303.787 404.936 330.242L404.027 332.836C399.238 346.59 396.528 357.032 395.456 364.581C394.92 368.355 394.79 371.424 395.021 373.831C395.252 376.229 395.847 378.026 396.809 379.2C397.794 380.403 399.127 380.902 400.679 380.771C402.2 380.641 403.923 379.909 405.776 378.693C409.489 376.259 413.895 371.775 418.542 365.714C435.584 343.483 456.23 299.526 458 255.072V448C458 482.794 429.794 511 395 511H63C28.2061 511 6.52399e-07 482.794 0 448V121C0 86.2061 28.2061 58 63 58H395ZM350.131 187.979C343.492 181.341 332.729 181.341 326.09 187.979L193.808 320.26L132.336 258.788C125.697 252.149 114.933 252.149 108.294 258.788L95.9795 271.103C89.3406 277.741 89.3406 288.506 95.9795 295.145L167.807 366.972C168.276 367.592 168.792 368.188 169.357 368.753L181.672 381.068C188.311 387.707 199.075 387.707 205.714 381.068L362.446 224.336C369.085 217.697 369.085 206.933 362.446 200.294L350.131 187.979Z" fill="#1AC897"/>
<path d="M0 121C0 86.2061 28.2061 58 63 58H395C429.794 58 458 86.2061 458 121V156H0V121Z" fill="#06997D"/>
<rect x="95" width="47" height="117" rx="23.5" fill="#025259"/>
<rect x="316" width="47" height="117" rx="23.5" fill="#025259"/>
</svg>
