<svg width="642" height="496" viewBox="0 0 642 496" fill="none" xmlns="http://www.w3.org/2000/svg">
<path d="M500 202.714C475 212.214 417.5 248.714 392 364.714C406.5 386.714 441.825 431.464 463 422.714C509.5 403.5 538.5 368 536 366.5C535 364 520.6 364.714 499 364.714C472 364.714 444.5 383.714 463 369.714C481.5 355.714 487.5 352.214 539 343.214C599.5 332.641 623.5 257.456 606.5 266.214C593.3 273.014 535 281.714 507.5 285.214C513.333 281.381 532.7 270.514 563.5 257.714C602 241.714 628.122 214.214 639 173.214C645.5 148.714 640 124.214 636 131.214C632.8 136.814 544 181.214 500 202.714Z" fill="url(#paint0_linear_17_45)"/>
<path fill-rule="evenodd" clip-rule="evenodd" d="M458 227.979L457.952 226.841L457.146 227.646C445.398 239.395 436.985 247.931 429.076 260.547C421.418 272.763 414.244 288.787 404.936 315.242L404.027 317.836C399.238 331.59 396.528 342.032 395.456 349.581C394.92 353.355 394.79 356.424 395.021 358.831C395.252 361.229 395.847 363.026 396.809 364.2C397.794 365.403 399.127 365.902 400.679 365.771C402.2 365.641 403.923 364.909 405.776 363.693C409.489 361.259 413.895 356.775 418.542 350.714C435.584 328.483 456.23 284.526 458 240.072V433C458 467.794 429.794 496 395 496H63C28.2061 496 6.52399e-07 467.794 0 433V141H458V227.979ZM350.131 172.979C343.492 166.34 332.728 166.34 326.089 172.979L193.808 305.26L132.336 243.788C125.697 237.149 114.933 237.149 108.294 243.788L95.9795 256.103C89.3406 262.741 89.3406 273.506 95.9795 280.145L167.807 351.972C168.276 352.592 168.791 353.188 169.356 353.753L181.672 366.068C188.311 372.707 199.075 372.707 205.714 366.068L362.445 209.336C369.084 202.697 369.084 191.933 362.445 185.294L350.131 172.979Z" fill="url(#paint1_linear_17_45)"/>
<path d="M99 20C99 8.95431 107.954 0 119 0H128C139.046 0 148 8.95431 148 20V78C148 89.0457 139.046 98 128 98H119C107.954 98 99 89.0457 99 78V20Z" fill="url(#paint2_linear_17_45)"/>
<path d="M320 20C320 8.95431 328.954 0 340 0H349C360.046 0 369 8.95431 369 20V78C369 89.0457 360.046 98 349 98H340C328.954 98 320 89.0457 320 78V20Z" fill="url(#paint3_linear_17_45)"/>
<path d="M95 78.5C95 91.4787 105.521 102 118.5 102H128.5C141.479 102 152 91.4787 152 78.5V43H316V78.5C316 91.4787 326.521 102 339.5 102H349.5C362.479 102 373 91.4787 373 78.5V43H395C429.794 43 458 71.2061 458 106V141H0V106C0 71.2061 28.2061 43 63 43H95V78.5Z" fill="url(#paint4_linear_17_45)"/>
<defs>
<linearGradient id="paint0_linear_17_45" x1="321" y1="0" x2="321" y2="389.5" gradientUnits="userSpaceOnUse">
<stop stop-color="#FAFAFA" stop-opacity="0.980392"/>
<stop offset="1" stop-color="#FDFDFD" stop-opacity="0.992157"/>
</linearGradient>
<linearGradient id="paint1_linear_17_45" x1="321" y1="0" x2="321" y2="389.5" gradientUnits="userSpaceOnUse">
<stop stop-color="#FAFAFA" stop-opacity="0.980392"/>
<stop offset="1" stop-color="#FDFDFD" stop-opacity="0.992157"/>
</linearGradient>
<linearGradient id="paint2_linear_17_45" x1="321" y1="0" x2="321" y2="389.5" gradientUnits="userSpaceOnUse">
<stop stop-color="#FAFAFA" stop-opacity="0.980392"/>
<stop offset="1" stop-color="#FDFDFD" stop-opacity="0.992157"/>
</linearGradient>
<linearGradient id="paint3_linear_17_45" x1="321" y1="0" x2="321" y2="389.5" gradientUnits="userSpaceOnUse">
<stop stop-color="#FAFAFA" stop-opacity="0.980392"/>
<stop offset="1" stop-color="#FDFDFD" stop-opacity="0.992157"/>
</linearGradient>
<linearGradient id="paint4_linear_17_45" x1="321" y1="0" x2="321" y2="389.5" gradientUnits="userSpaceOnUse">
<stop stop-color="#FAFAFA" stop-opacity="0.980392"/>
<stop offset="1" stop-color="#FDFDFD" stop-opacity="0.992157"/>
</linearGradient>
</defs>
</svg>
